<svg width="44" height="52" viewBox="0 0 44 52" fill="none" xmlns="http://www.w3.org/2000/svg">
<path fill-rule="evenodd" clip-rule="evenodd" d="M25.0192 2.94776C25.0192 2.21237 25.3609 1.50711 25.969 0.987113C26.5772 0.467118 27.402 0.174988 28.2621 0.174988H39.8156C40.6757 0.174988 41.5005 0.467118 42.1087 0.987113C42.7168 1.50711 43.0585 2.21237 43.0585 2.94776V12.8299C43.0585 13.5653 42.7168 14.2706 42.1087 14.7906C41.5005 15.3105 40.6757 15.6027 39.8156 15.6027C38.9555 15.6027 38.1306 15.3105 37.5225 14.7906C36.9143 14.2706 36.5727 13.5653 36.5727 12.8299V9.63938L30.5624 14.7782C32.0885 16.7278 33.0282 18.9691 33.2984 21.3036C33.5686 23.638 33.1608 25.9934 32.1113 28.1609C31.0617 30.3283 29.4028 32.2408 27.2817 33.7287C25.1605 35.2166 22.6427 36.2339 19.9516 36.6905V39.6962H24.4095C25.2696 39.6962 26.0945 39.9883 26.7026 40.5083C27.3108 41.0283 27.6525 41.7336 27.6525 42.469C27.6525 43.2044 27.3108 43.9096 26.7026 44.4296C26.0945 44.9496 25.2696 45.2417 24.4095 45.2417H19.9516V49.0534C19.9516 49.7888 19.6099 50.494 19.0018 51.014C18.3936 51.534 17.5687 51.8261 16.7087 51.8261C15.8486 51.8261 15.0237 51.534 14.4156 51.014C13.8074 50.494 13.4657 49.7888 13.4657 49.0534V45.2417H8.99916C8.57329 45.2417 8.1516 45.17 7.75815 45.0307C7.3647 44.8913 7.0072 44.6871 6.70607 44.4296C6.40493 44.1721 6.16606 43.8665 6.00309 43.5301C5.84012 43.1937 5.75624 42.8331 5.75624 42.469C5.75624 42.1048 5.84012 41.7443 6.00309 41.4079C6.16606 41.0715 6.40493 40.7658 6.70607 40.5083C7.0072 40.2509 7.3647 40.0466 7.75815 39.9073C8.1516 39.7679 8.57329 39.6962 8.99916 39.6962H13.4614V36.6868C11.0409 36.2785 8.75661 35.416 6.77318 34.1614C4.78975 32.9069 3.15667 31.2917 1.9917 29.4322C0.826729 27.5727 0.158919 25.5153 0.0364317 23.4085C-0.086056 21.3016 0.339831 19.1978 1.28338 17.2487C2.22693 15.2996 3.66461 13.5538 5.49275 12.1373C7.32089 10.7208 9.49392 9.66879 11.8551 9.05723C14.2163 8.44566 16.7068 8.28976 19.147 8.60077C21.5871 8.91177 23.9162 9.68193 25.9661 10.8557L31.9763 5.71683H28.2578C27.3977 5.71683 26.5729 5.4247 25.9647 4.9047C25.3565 4.38471 25.0149 3.67945 25.0149 2.94406L25.0192 2.94776ZM8.21221 18.4679C8.21221 17.1924 9.4229 16.1572 10.9146 16.1572H22.5027C23.2194 16.1572 23.9068 16.4007 24.4136 16.834C24.9204 17.2673 25.2051 17.8551 25.2051 18.4679C25.2051 19.0807 24.9204 19.6684 24.4136 20.1017C23.9068 20.5351 23.2194 20.7785 22.5027 20.7785H10.9146C10.1979 20.7785 9.51054 20.5351 9.00374 20.1017C8.49693 19.6684 8.21221 19.0807 8.21221 18.4679ZM10.9146 24.6419C10.1979 24.6419 9.51054 24.8854 9.00374 25.3187C8.49693 25.752 8.21221 26.3397 8.21221 26.9526C8.21221 27.5654 8.49693 28.1531 9.00374 28.5864C9.51054 29.0198 10.1979 29.2632 10.9146 29.2632H22.5027C23.2194 29.2632 23.9068 29.0198 24.4136 28.5864C24.9204 28.1531 25.2051 27.5654 25.2051 26.9526C25.2051 26.3397 24.9204 25.752 24.4136 25.3187C23.9068 24.8854 23.2194 24.6419 22.5027 24.6419H10.9146Z" fill="#A006FE"/>
</svg>
