<svg width="50" height="51" viewBox="0 0 50 51" fill="none" xmlns="http://www.w3.org/2000/svg">
<path d="M0.559631 33.6807C0.559631 33.3192 0.703235 32.9725 0.95885 32.7169C1.21447 32.4613 1.56115 32.3177 1.92265 32.3177H6.0117C6.37319 32.3177 6.71988 32.4613 6.9755 32.7169C7.23111 32.9725 7.37471 33.3192 7.37471 33.6807V48.6684C7.37471 49.0299 7.23111 49.3766 6.9755 49.6322C6.71988 49.8879 6.37319 50.0315 6.0117 50.0315H1.92265C1.56115 50.0315 1.21447 49.8879 0.95885 49.6322C0.703235 49.3766 0.559631 49.0299 0.559631 48.6684V33.6807ZM20.889 32.5753C20.889 32.5753 17.7841 31.996 16.5137 32.5753C15.5678 33.006 11.9067 34.32 10.1007 34.9633V47.0396C11.1462 46.9797 13.2261 46.8693 14.1148 46.9047C19.2343 47.1105 21.8472 49.2682 26.9572 49.6553C29.8154 49.872 32.3193 50.3777 34.2957 49.6553C36.272 48.9315 47.5605 43.4317 48.9713 41.9842C50.382 40.5367 49.6773 36.6276 45.302 37.3513C40.9267 38.0751 35.1421 41.5494 32.7432 41.4049C30.3443 41.2605 23.9926 40.1019 23.9926 40.1019L31.2848 40.1905C31.2848 40.1905 32.3152 40.245 33.73 39.2337C35.1475 38.2223 36.4124 35.3259 34.2957 35.3259C32.1789 35.3259 29.9204 34.6008 29.9204 34.6008L20.889 32.5753ZM27.82 20.6353C27.82 23.3613 25.7209 25.5026 23.0494 25.5026C20.3779 25.5026 18.2788 23.3613 18.2788 20.6353C18.2788 17.9093 23.0494 11.8725 23.0494 11.8725C23.0494 11.8725 27.82 18.1028 27.82 20.6353ZM48.2652 14.7784C48.2652 18.464 45.2366 21.4136 41.4501 21.4136C37.6637 21.4136 34.635 18.4654 34.635 14.7784C34.635 11.0928 41.4501 0.968323 41.4501 0.968323C41.4501 0.968323 48.2652 11.0928 48.2652 14.7784Z" fill="#A006FE"/>
</svg>
