<svg width="66" height="66" viewBox="0 0 66 66" fill="none" xmlns="http://www.w3.org/2000/svg">
<g clip-path="url(#clip0_0_51)">
<path d="M57.0943 34.1574C58.0839 34.1574 59.0513 33.8498 59.8741 33.2734C60.697 32.6969 61.3383 31.8777 61.717 30.9191C62.0957 29.9606 62.1948 28.9058 62.0017 27.8882C61.8087 26.8706 61.3321 25.9359 60.6324 25.2023C59.9326 24.4686 59.0411 23.969 58.0705 23.7666C57.0999 23.5642 56.0938 23.6681 55.1795 24.0651C54.2653 24.4622 53.4838 25.1345 52.934 25.9972C52.3842 26.8599 52.0908 27.8741 52.0908 28.9116C52.0908 30.3029 52.6179 31.6372 53.5563 32.621C54.4946 33.6048 55.7673 34.1574 57.0943 34.1574ZM37.8588 29.1794C38.4174 29.0015 38.9981 28.9113 39.5819 28.9116C40.2582 28.9175 40.9284 29.0466 41.5625 29.293L43.1626 23.9805C43.2751 23.6096 43.3074 23.2171 43.2573 22.8315C43.2071 22.4458 43.0758 22.0767 42.8727 21.7509C42.6696 21.425 42.3999 21.1507 42.0831 20.9477C41.7664 20.7447 41.4105 20.6182 41.0413 20.5773C39.8394 20.4298 38.7261 21.2811 38.3613 22.4909L36.1826 29.7225L37.8588 29.1794ZM15.1532 51.8981C15.2366 51.8774 15.3137 51.8391 15.3981 51.8205V49.0129C15.4009 45.4293 16.4806 41.9377 18.484 39.0341C20.4874 36.1305 23.3125 33.9626 26.5581 32.8383L34.2406 30.3509L37.8015 18.5347C37.9134 18.1642 37.9454 17.7722 37.8951 17.3871C37.8448 17.002 37.7135 16.6334 37.5107 16.308C37.3079 15.9826 37.0387 15.7086 36.7224 15.5057C36.4062 15.3028 36.0509 15.1761 35.6823 15.1348C34.4804 14.9883 33.3661 15.8397 33.0012 17.0495L29.5144 28.6799C29.4476 28.9011 29.2998 29.0854 29.1034 29.1923C28.907 29.2991 28.6782 29.3199 28.4673 29.2499C28.2563 29.1799 28.0806 29.0249 27.9786 28.819C27.8767 28.6131 27.8569 28.3732 27.9237 28.1521L32.4446 13.0933C32.5565 12.7227 32.5885 12.3307 32.5382 11.9456C32.4879 11.5605 32.3566 11.1919 32.1538 10.8666C31.951 10.5412 31.6817 10.2671 31.3655 10.0642C31.0493 9.86132 30.694 9.73464 30.3254 9.69334C29.1235 9.54689 28.0112 10.3982 27.6453 11.607L22.6491 28.187C22.5825 28.4082 22.4348 28.5925 22.2385 28.6995C22.0422 28.8065 21.8135 28.8274 21.6025 28.7575C21.3916 28.6877 21.2158 28.5328 21.1137 28.327C21.0117 28.1213 20.9918 27.8814 21.0584 27.6603L25.0779 14.3271C25.1898 13.9566 25.2218 13.5646 25.1715 13.1795C25.1212 12.7944 24.9899 12.4258 24.7871 12.1004C24.5843 11.775 24.3151 11.501 23.9988 11.2981C23.6826 11.0952 23.3273 10.9685 22.9587 10.9272C21.7568 10.7698 20.6435 11.6255 20.2787 12.8354L14.0242 33.5837L13.8095 28.1138C13.8116 27.7693 13.7489 27.4277 13.625 27.1086C13.5011 26.7894 13.3184 26.499 13.0875 26.2539C12.8565 26.0088 12.5817 25.8139 12.2789 25.6801C11.976 25.5464 11.651 25.4765 11.3223 25.4745C9.94323 25.469 8.74551 26.6264 8.72675 28.0821V40.4021C8.75959 42.7371 9.36881 45.0233 10.495 47.038C11.6213 49.0527 13.2261 50.7271 15.1532 51.8981ZM59.5023 46.3977H42.9176C42.6964 46.3977 42.4843 46.3056 42.3279 46.1416C42.1716 45.9776 42.0837 45.7553 42.0837 45.5234C42.0837 45.2915 42.1716 45.0691 42.3279 44.9051C42.4843 44.7412 42.6964 44.6491 42.9176 44.6491H56.2604C56.6312 44.6493 56.9973 44.5632 57.3325 44.3969C57.6676 44.2306 57.9633 43.9883 58.1981 43.6875C58.4329 43.3867 58.6011 43.0349 58.6903 42.6576C58.7796 42.2803 58.7878 41.8869 58.7142 41.506C58.4859 40.2601 57.3768 39.4033 56.1666 39.4033H35.4123L40.321 37.5388C40.635 37.437 40.9268 37.2714 41.1798 37.0514C41.4328 36.8314 41.642 36.5614 41.7954 36.2566C41.9488 35.9518 42.0435 35.6184 42.074 35.2753C42.1045 34.9322 42.0703 34.5861 41.9732 34.2569C41.8761 33.9277 41.7182 33.6217 41.5083 33.3565C41.2985 33.0912 41.0409 32.8719 40.7502 32.7111C40.4595 32.5502 40.1415 32.451 39.8142 32.419C39.4869 32.387 39.1569 32.4229 38.8429 32.5247L27.6141 36.1585C25.0306 37.049 22.7813 38.7718 21.1867 41.0814C19.5921 43.391 18.7337 46.1694 18.7338 49.0206V51.8238C19.9366 52.0778 21.0709 52.6077 22.0554 53.3755C23.0398 54.1432 23.85 55.1298 24.4279 56.2646C25.0058 57.3993 25.337 58.6541 25.3979 59.9388C25.4587 61.2236 25.2476 62.5066 24.7798 63.6958C26.7228 64.9531 28.9594 65.6233 31.2427 65.6324H52.9247C53.2955 65.6326 53.6617 65.5465 53.9968 65.3802C54.3319 65.2139 54.6276 64.9716 54.8624 64.6708C55.0972 64.3699 55.2654 64.0182 55.3546 63.6409C55.4439 63.2636 55.4521 62.8702 55.3785 62.4892C55.1502 61.2433 54.0411 60.3865 52.8309 60.3865H42.9176C42.6964 60.3865 42.4843 60.2944 42.3279 60.1305C42.1716 59.9665 42.0837 59.7441 42.0837 59.5122C42.0837 59.2803 42.1716 59.058 42.3279 58.894C42.4843 58.73 42.6964 58.6379 42.9176 58.6379H56.2604C56.6312 58.6382 56.9973 58.5521 57.3325 58.3858C57.6676 58.2195 57.9633 57.9771 58.1981 57.6763C58.4329 57.3755 58.6011 57.0238 58.6903 56.6465C58.7796 56.2692 58.7878 55.8758 58.7142 55.4948C58.4859 54.2489 57.3768 53.3921 56.1666 53.3921H42.9176C42.6964 53.3921 42.4843 53.3 42.3279 53.136C42.1716 52.9721 42.0837 52.7497 42.0837 52.5178C42.0837 52.2859 42.1716 52.0635 42.3279 51.8996C42.4843 51.7356 42.6964 51.6435 42.9176 51.6435H59.5961C59.9669 51.6438 60.333 51.5576 60.6682 51.3913C61.0033 51.225 61.299 50.9827 61.5338 50.6819C61.7686 50.3811 61.9368 50.0293 62.026 49.652C62.1153 49.2747 62.1234 48.8814 62.0499 48.5004C61.8216 47.2545 60.7125 46.3977 59.5023 46.3977ZM48.7551 16.6714C49.4148 16.6714 50.0597 16.4663 50.6083 16.082C51.1568 15.6977 51.5844 15.1515 51.8369 14.5125C52.0893 13.8734 52.1554 13.1703 52.0267 12.4919C51.898 11.8135 51.5803 11.1903 51.1138 10.7013C50.6473 10.2122 50.0529 9.87908 49.4058 9.74414C48.7588 9.6092 48.0881 9.67846 47.4786 9.94315C46.869 10.2078 46.3481 10.6561 45.9816 11.2312C45.615 11.8063 45.4194 12.4825 45.4194 13.1742C45.4194 14.1017 45.7708 14.9912 46.3964 15.6471C47.022 16.3029 47.8704 16.6714 48.7551 16.6714ZM17.066 55.1407C16.0764 55.1407 15.109 55.4484 14.2862 56.0248C13.4633 56.6012 12.822 57.4205 12.4433 58.379C12.0646 59.3376 11.9655 60.3924 12.1586 61.4099C12.3516 62.4275 12.8282 63.3622 13.5279 64.0959C14.2277 64.8295 15.1192 65.3291 16.0898 65.5316C17.0604 65.734 18.0665 65.6301 18.9808 65.233C19.895 64.836 20.6765 64.1636 21.2263 63.301C21.7761 62.4383 22.0695 61.4241 22.0695 60.3865C22.0695 58.9953 21.5424 57.661 20.604 56.6772C19.6657 55.6934 18.393 55.1407 17.066 55.1407Z" fill="#A006FE"/>
</g>
<defs>
<clipPath id="clip0_0_51">
<rect width="65.4248" height="65.4248" fill="white" transform="translate(0.118286 0.206909)"/>
</clipPath>
</defs>
</svg>
