<svg width="32" height="55" viewBox="0 0 32 55" fill="none" xmlns="http://www.w3.org/2000/svg">
<path d="M8.65026 54.7915C7.51805 54.7915 6.53667 54.4326 5.70614 53.7147C4.87743 52.9969 4.38947 52.0854 4.24226 50.9805L0.390378 21.8419C0.29951 21.1786 0.46489 20.5979 0.886516 20.1C1.30814 19.602 1.86516 19.3531 2.55757 19.3531H29.439C30.1296 19.3531 30.6857 19.602 31.1073 20.1C31.5308 20.5979 31.6971 21.1795 31.6062 21.8447L27.7461 50.9805C27.5989 52.0854 27.1082 52.9969 26.2741 53.7147C25.4417 54.4326 24.4694 54.7915 23.3572 54.7915H8.65026ZM15.9642 37.0723C17.8543 37.0723 19.4635 36.4089 20.792 35.0823C22.1205 33.7592 22.7847 32.1509 22.7847 30.2572V27.5312C22.7847 27.1441 22.6539 26.8206 22.3922 26.5607C22.1305 26.3008 21.8061 26.17 21.419 26.1681C21.0319 26.1663 20.7084 26.2972 20.4485 26.5607C20.1887 26.8242 20.0587 27.1477 20.0587 27.5312V30.2572C20.0587 31.3785 19.658 32.3408 18.8565 33.1441C18.0533 33.9455 17.091 34.3462 15.9697 34.3462C14.8484 34.3462 13.8861 33.9455 13.0828 33.1441C12.2795 32.3426 11.8788 31.3803 11.8806 30.2572V27.5312C11.8806 27.1441 11.7498 26.8206 11.4881 26.5607C11.2264 26.3008 10.902 26.17 10.5149 26.1681C10.1278 26.1663 9.80428 26.2972 9.5444 26.5607C9.28452 26.8242 9.15458 27.1477 9.15458 27.5312V30.2572C9.15458 32.1509 9.817 33.7592 11.1419 35.0823C12.4649 36.4089 14.0723 37.0723 15.9642 37.0723ZM24.1532 13.8465C23.399 13.8465 22.7548 13.583 22.2205 13.0559C21.6862 12.5289 21.4199 11.8865 21.4217 11.1286C21.4235 10.3708 21.688 9.72653 22.215 9.19586C22.742 8.66519 23.3845 8.39895 24.1423 8.39713C24.9001 8.39532 25.5444 8.65883 26.0751 9.18768C26.6057 9.71653 26.872 10.3599 26.8738 11.1177C26.8756 11.8756 26.6112 12.5198 26.0805 13.0505C25.5498 13.5811 24.9074 13.8447 24.1532 13.8465ZM10.5176 11.1204C9.02736 11.1204 7.74613 10.5843 6.67389 9.51208C5.60165 8.43984 5.06553 7.14952 5.06553 5.64111C5.06553 4.13271 5.60165 2.85147 6.67389 1.79741C7.74613 0.743342 9.03645 0.216309 10.5449 0.216309C12.0533 0.216309 13.3345 0.743342 14.3886 1.79741C15.4426 2.85147 15.9697 4.1418 15.9697 5.66838C15.9697 7.15679 15.4426 8.43802 14.3886 9.51208C13.3345 10.5843 12.0442 11.1204 10.5176 11.1204Z" fill="#A006FE"/>
</svg>
